<?xml version="1.0" encoding="UTF-8"?>
<svg xmlns="http://www.w3.org/2000/svg" xmlns:xlink="http://www.w3.org/1999/xlink" width="365pt" height="135.99pt" viewBox="0 0 365 135.99" version="1.1">
<defs>
<clipPath id="clip1">
  <path d="M 72 68 L 365 68 L 365 135.988281 L 72 135.988281 Z M 72 68 "/>
</clipPath>
<clipPath id="clip2">
  <path d="M 72 67 L 365 67 L 365 135.988281 L 72 135.988281 Z M 72 67 "/>
</clipPath>
</defs>
<g id="surface1">
<path style=" stroke:none;fill-rule:nonzero;fill:rgb(83.099365%,21.998596%,15.299988%);fill-opacity:1;" d="M 74.195313 39.332031 L 46.171875 48.457031 L 46.210938 78.027344 L 28.804688 54.105469 L 0.671875 63.257813 L 18.074219 39.332031 L 0.78125 15.519531 L 28.804688 24.585938 L 46.136719 0.789063 L 46.171875 30.222656 "/>
<path style=" stroke:none;fill-rule:nonzero;fill:rgb(83.099365%,21.998596%,15.299988%);fill-opacity:1;" d="M 74.195313 39.332031 L 74.117188 39.089844 L 45.914063 48.273438 L 45.953125 77.238281 L 28.90625 53.804688 L 1.347656 62.769531 L 18.394531 39.332031 L 1.453125 16.007813 L 28.90625 24.890625 L 45.882813 1.574219 L 45.917969 30.40625 L 74.117188 39.578125 L 74.195313 39.332031 L 74.117188 39.089844 L 74.195313 39.332031 L 74.277344 39.089844 L 46.429688 30.035156 L 46.394531 0 L 28.707031 24.285156 L 0.113281 15.03125 L 17.757813 39.332031 L 0 63.746094 L 28.707031 54.410156 L 46.464844 78.820313 L 46.429688 48.644531 L 75.027344 39.332031 L 74.277344 39.089844 L 74.195313 39.332031 "/>
<g clip-path="url(#clip1)" clip-rule="nonzero">
<path style=" stroke:none;fill-rule:nonzero;fill:rgb(14.099121%,24.699402%,54.098511%);fill-opacity:1;" d="M 149.042969 102.574219 L 139.238281 102.574219 L 139.238281 112.398438 L 149.042969 112.398438 Z M 316.734375 91.371094 C 314.597656 86.058594 313.601563 81.421875 306.707031 81.167969 L 306.707031 79.261719 C 310.613281 79.347656 314.484375 79.5 318.394531 79.585938 C 322.488281 79.5 326.546875 79.347656 330.601563 79.261719 L 330.601563 81.167969 C 328.203125 81.167969 324.148438 81.167969 324.148438 84.5625 C 324.148438 87.476563 329.121094 100.191406 330.449219 103.664063 L 338.933594 124.769531 L 346.824219 105.5 C 348.296875 101.421875 353.054688 88.894531 353.054688 85.234375 C 353.054688 81.085938 349.699219 81.167969 346.566406 81.167969 L 346.566406 79.261719 C 349.703125 79.347656 352.871094 79.5 356.039063 79.585938 C 358.917969 79.5 361.828125 79.347656 364.742188 79.261719 L 364.742188 81.167969 C 357.515625 81.085938 356.113281 88.148438 353.9375 93.785156 L 337.089844 135.734375 L 334.617188 135.734375 Z M 248.082031 106.917969 C 248.082031 119.953125 253.207031 132.90625 268.324219 132.90625 C 283.109375 132.90625 287.609375 119.042969 287.609375 106.667969 C 287.609375 94.207031 282.445313 80.5 267.84375 80.5 C 253.464844 80.496094 248.082031 94.625 248.082031 106.917969 Z M 237.683594 106.917969 C 237.683594 90.390625 252.140625 78.257813 268.175781 78.257813 C 284.027344 78.257813 297.96875 89.890625 297.96875 106.328125 C 297.96875 123.355469 284.621094 135.144531 267.84375 135.144531 C 251.660156 135.144531 237.683594 123.609375 237.683594 106.917969 Z M 215.304688 96.195313 L 213.535156 96.195313 C 212.945313 86.898438 206.898438 80.171875 197.273438 80.171875 C 181.089844 80.171875 177.582031 95.113281 177.582031 108.230469 C 177.582031 120.691406 182.414063 132.902344 196.535156 132.902344 C 204.828125 132.902344 210.398438 129.007813 210.398438 120.457031 C 210.398438 114.878906 208.296875 113.8125 203.242188 113.390625 L 203.242188 111.46875 L 224.996094 111.46875 L 224.996094 113.390625 C 220.5 113.308594 219.835938 115.550781 219.835938 119.699219 L 219.835938 128.5 C 213.789063 128.5 213.273438 129.175781 208.148438 131.988281 C 203.910156 134.148438 199.851563 135.144531 195.09375 135.144531 C 178.910156 135.144531 167.21875 124.519531 167.21875 108.082031 C 167.21875 91.132813 178.90625 78.253906 196.273438 78.253906 C 202.394531 78.253906 208.554688 79.753906 213.527344 83.496094 L 215.300781 79.753906 L 216.1875 79.753906 Z M 82.34375 87.503906 C 82.34375 84.308594 82.34375 76.925781 81.386719 74.214844 C 80.054688 70.828125 75.964844 70.828125 72.757813 70.828125 L 72.757813 68.136719 L 122.425781 68.136719 L 122.425781 83.214844 L 120.136719 83.214844 C 118.21875 71.53125 113.023438 70.828125 102.441406 70.828125 L 95.25 70.828125 C 93.734375 70.828125 93.035156 70.726563 92.742188 71.21875 C 92.558594 71.625 92.667969 72.71875 92.667969 74.917969 L 92.667969 98.589844 C 106.347656 99.191406 108.339844 93.5 108.929688 86.3125 L 111.253906 86.3125 C 111.140625 90.8125 111.03125 95.40625 110.847656 99.90625 C 111.03125 104 111.140625 108.191406 111.253906 112.28125 L 108.929688 112.28125 C 107.527344 101.800781 102.257813 101.296875 92.667969 101.296875 L 92.667969 117.679688 C 92.667969 120.679688 92.667969 125.375 94.4375 127.769531 C 97.054688 131.273438 103.25 131.457031 107.234375 131.371094 C 117.632813 131.164063 124.414063 129.871094 125.707031 117.976563 L 128.027344 117.976563 L 127.105469 134.066406 L 72.757813 134.066406 L 72.757813 131.765625 C 75.964844 131.765625 80.058594 131.765625 81.386719 128.375 C 82.34375 125.671875 82.34375 118.285156 82.34375 115.085938 "/>
</g>
<g clip-path="url(#clip2)" clip-rule="nonzero">
<path style=" stroke:none;fill-rule:nonzero;fill:rgb(14.099121%,24.699402%,54.098511%);fill-opacity:1;" d="M 149.042969 102.574219 L 149.042969 102.316406 L 138.980469 102.316406 L 138.980469 112.652344 L 149.300781 112.652344 L 149.300781 102.316406 L 149.042969 102.316406 L 149.042969 102.574219 L 148.785156 102.574219 L 148.785156 112.140625 L 139.492188 112.140625 L 139.492188 102.828125 L 149.042969 102.828125 L 149.042969 102.574219 L 148.785156 102.574219 Z M 316.734375 91.371094 L 316.972656 91.277344 C 315.90625 88.632813 315.125 86.128906 313.710938 84.21875 C 313.003906 83.265625 312.132813 82.464844 310.996094 81.894531 C 309.863281 81.320313 308.46875 80.976563 306.714844 80.914063 L 306.707031 81.167969 L 306.964844 81.167969 L 306.964844 79.261719 L 306.707031 79.261719 L 306.699219 79.519531 C 310.605469 79.605469 314.476563 79.757813 318.390625 79.84375 L 318.402344 79.84375 C 322.496094 79.757813 326.554688 79.605469 330.605469 79.519531 L 330.601563 79.261719 L 330.34375 79.261719 L 330.34375 81.167969 L 330.601563 81.167969 L 330.601563 80.914063 C 329.398438 80.914063 327.765625 80.910156 326.394531 81.347656 C 325.710938 81.570313 325.085938 81.90625 324.625 82.429688 C 324.164063 82.953125 323.886719 83.664063 323.890625 84.5625 C 323.894531 85.355469 324.210938 86.691406 324.699219 88.359375 C 326.164063 93.347656 329.214844 101.152344 330.210938 103.757813 L 338.929688 125.453125 L 347.0625 105.59375 L 347.066406 105.589844 C 347.800781 103.550781 349.359375 99.398438 350.734375 95.292969 C 351.425781 93.238281 352.066406 91.199219 352.539063 89.4375 C 353.007813 87.675781 353.3125 86.199219 353.3125 85.234375 C 353.3125 84.207031 353.113281 83.402344 352.746094 82.785156 C 352.195313 81.855469 351.28125 81.382813 350.257813 81.152344 C 349.230469 80.921875 348.070313 80.914063 346.9375 80.914063 C 346.8125 80.914063 346.691406 80.914063 346.566406 80.914063 L 346.566406 81.167969 L 346.824219 81.167969 L 346.824219 79.261719 L 346.566406 79.261719 L 346.558594 79.519531 C 349.691406 79.605469 352.859375 79.757813 356.035156 79.84375 L 356.046875 79.84375 C 358.929688 79.757813 361.84375 79.605469 364.75 79.519531 L 364.742188 79.261719 L 364.484375 79.261719 L 364.484375 81.167969 L 364.742188 81.167969 L 364.746094 80.914063 L 364.613281 80.910156 C 362.792969 80.910156 361.316406 81.363281 360.109375 82.136719 C 358.300781 83.296875 357.105469 85.152344 356.15625 87.222656 C 355.210938 89.300781 354.507813 91.601563 353.699219 93.691406 L 353.9375 93.785156 L 353.699219 93.6875 L 336.914063 135.476563 L 334.792969 135.476563 L 316.972656 91.277344 L 316.734375 91.371094 L 316.496094 91.46875 L 334.445313 135.988281 L 337.261719 135.988281 L 354.175781 93.878906 L 354.175781 93.875 C 355.265625 91.0625 356.15625 87.917969 357.636719 85.511719 C 358.378906 84.304688 359.265625 83.285156 360.386719 82.570313 C 361.511719 81.851563 362.878906 81.425781 364.613281 81.425781 L 364.738281 81.425781 L 365 81.429688 L 365 79 L 364.734375 79.007813 C 361.820313 79.089844 358.90625 79.246094 356.03125 79.328125 L 356.039063 79.585938 L 356.046875 79.328125 C 352.882813 79.246094 349.714844 79.089844 346.574219 79.007813 L 346.3125 79 L 346.3125 81.425781 L 346.566406 81.425781 C 346.691406 81.425781 346.8125 81.425781 346.9375 81.425781 C 348.445313 81.421875 349.949219 81.453125 351.023438 81.941406 C 351.5625 82.183594 351.996094 82.53125 352.304688 83.046875 C 352.613281 83.566406 352.800781 84.269531 352.800781 85.234375 C 352.800781 86.097656 352.507813 87.5625 352.042969 89.304688 C 350.640625 94.542969 347.6875 102.351563 346.582031 105.414063 L 346.824219 105.5 L 346.585938 105.402344 L 338.933594 124.089844 L 330.6875 103.570313 L 330.449219 103.664063 L 330.691406 103.574219 C 330.027344 101.835938 328.449219 97.789063 327.042969 93.816406 C 326.339844 91.832031 325.675781 89.863281 325.191406 88.214844 C 324.703125 86.570313 324.398438 85.226563 324.402344 84.5625 C 324.40625 83.761719 324.636719 83.199219 325.011719 82.769531 C 325.570313 82.125 326.507813 81.773438 327.546875 81.601563 C 328.582031 81.425781 329.699219 81.425781 330.601563 81.425781 L 330.855469 81.425781 L 330.855469 79 L 330.59375 79.007813 C 326.535156 79.089844 322.476563 79.246094 318.390625 79.328125 L 318.394531 79.585938 L 318.402344 79.328125 C 314.496094 79.246094 310.625 79.089844 306.710938 79.007813 L 306.449219 79 L 306.449219 81.417969 L 306.695313 81.425781 C 308.394531 81.488281 309.710938 81.816406 310.765625 82.351563 C 312.351563 83.152344 313.375 84.414063 314.214844 85.996094 C 315.050781 87.574219 315.691406 89.46875 316.496094 91.46875 Z M 248.082031 106.917969 L 247.824219 106.917969 C 247.828125 113.46875 249.109375 120.007813 252.320313 124.9375 C 255.527344 129.871094 260.691406 133.167969 268.324219 133.160156 C 272.0625 133.160156 275.164063 132.285156 277.707031 130.765625 C 281.523438 128.488281 284.0625 124.78125 285.644531 120.496094 C 287.230469 116.207031 287.863281 111.332031 287.863281 106.667969 C 287.863281 100.402344 286.570313 93.816406 283.417969 88.773438 C 280.273438 83.730469 275.226563 80.234375 267.84375 80.242188 L 267.84375 80.5 L 267.847656 80.242188 L 267.839844 80.242188 C 264.203125 80.242188 261.121094 81.136719 258.554688 82.675781 C 254.703125 84.988281 252.023438 88.742188 250.304688 93.0625 C 248.585938 97.382813 247.824219 102.28125 247.824219 106.917969 L 248.339844 106.917969 C 248.339844 100.808594 249.679688 94.242188 252.789063 89.234375 C 254.34375 86.726563 256.335938 84.609375 258.820313 83.117188 C 261.304688 81.625 264.289063 80.753906 267.839844 80.753906 L 267.84375 80.753906 C 275.0625 80.761719 279.898438 84.121094 282.984375 89.046875 C 286.0625 93.972656 287.351563 100.472656 287.351563 106.667969 C 287.351563 112.824219 286.226563 119.34375 283.289063 124.296875 C 281.820313 126.773438 279.902344 128.855469 277.445313 130.324219 C 274.984375 131.792969 271.980469 132.648438 268.324219 132.648438 C 260.839844 132.640625 255.886719 129.460938 252.75 124.660156 C 249.617188 119.855469 248.339844 113.402344 248.339844 106.917969 Z M 237.683594 106.917969 L 237.941406 106.917969 C 237.941406 98.730469 241.519531 91.636719 247.089844 86.582031 C 252.660156 81.523438 260.222656 78.511719 268.175781 78.511719 C 276.039063 78.511719 283.429688 81.398438 288.847656 86.316406 C 294.261719 91.238281 297.714844 98.183594 297.714844 106.328125 C 297.714844 114.773438 294.40625 121.90625 289.023438 126.933594 C 283.640625 131.964844 276.171875 134.890625 267.84375 134.890625 C 259.8125 134.886719 252.332031 132.023438 246.867188 127.097656 C 241.398438 122.171875 237.941406 115.191406 237.941406 106.917969 L 237.425781 106.917969 C 237.425781 115.335938 240.957031 122.46875 246.523438 127.480469 C 252.089844 132.496094 259.691406 135.402344 267.84375 135.402344 C 276.292969 135.402344 283.890625 132.433594 289.375 127.3125 C 294.859375 122.1875 298.226563 114.910156 298.226563 106.328125 C 298.226563 98.035156 294.707031 90.945313 289.191406 85.9375 C 283.675781 80.929688 276.164063 78 268.175781 78 C 260.09375 78 252.410156 81.058594 246.742188 86.199219 C 241.078125 91.339844 237.425781 98.578125 237.425781 106.917969 Z M 215.304688 96.195313 L 215.304688 95.9375 L 213.535156 95.9375 L 213.535156 96.195313 L 213.789063 96.179688 C 213.492188 91.480469 211.816406 87.414063 208.976563 84.519531 C 206.140625 81.625 202.144531 79.914063 197.273438 79.917969 C 193.1875 79.914063 189.882813 80.859375 187.234375 82.492188 C 183.261719 84.945313 180.78125 88.925781 179.300781 93.511719 C 177.820313 98.097656 177.324219 103.296875 177.324219 108.230469 C 177.324219 114.496094 178.535156 120.707031 181.546875 125.378906 C 184.554688 130.054688 189.398438 133.164063 196.535156 133.160156 C 200.71875 133.160156 204.25 132.175781 206.742188 130.082031 C 209.238281 127.988281 210.65625 124.785156 210.65625 120.457031 C 210.65625 119.046875 210.523438 117.910156 210.238281 116.980469 C 209.8125 115.589844 209.007813 114.675781 207.839844 114.109375 C 206.675781 113.542969 205.171875 113.296875 203.265625 113.136719 L 203.242188 113.390625 L 203.5 113.390625 L 203.5 111.726563 L 224.742188 111.726563 L 224.742188 113.390625 L 224.996094 113.390625 L 225.003906 113.136719 C 224.921875 113.132813 224.835938 113.132813 224.757813 113.132813 C 223.664063 113.132813 222.789063 113.273438 222.085938 113.566406 C 221.023438 113.996094 220.371094 114.789063 220.019531 115.828125 C 219.667969 116.871094 219.578125 118.160156 219.578125 119.699219 L 219.578125 128.5 L 219.835938 128.5 L 219.835938 128.242188 C 216.808594 128.242188 215.132813 128.410156 213.5625 128.945313 C 211.996094 129.480469 210.582031 130.359375 208.027344 131.765625 L 208.148438 131.988281 L 208.03125 131.761719 C 203.824219 133.902344 199.816406 134.886719 195.09375 134.886719 C 187.058594 134.886719 180.15625 132.25 175.265625 127.589844 C 170.371094 122.929688 167.476563 116.238281 167.476563 108.082031 C 167.476563 99.667969 170.375 92.277344 175.421875 86.988281 C 180.464844 81.703125 187.652344 78.511719 196.273438 78.511719 C 202.355469 78.511719 208.457031 80 213.375 83.699219 L 213.625 83.890625 L 215.460938 80.007813 L 215.914063 80.007813 L 215.046875 96.179688 L 215.304688 96.195313 L 215.304688 95.9375 L 215.304688 96.195313 L 215.5625 96.207031 L 216.457031 79.496094 L 215.136719 79.496094 L 213.296875 83.386719 L 213.527344 83.496094 L 213.683594 83.289063 C 208.652344 79.503906 202.4375 77.996094 196.273438 77.996094 C 187.527344 77.996094 180.1875 81.246094 175.046875 86.636719 C 169.90625 92.023438 166.960938 99.550781 166.964844 108.082031 C 166.960938 116.359375 169.910156 123.203125 174.910156 127.964844 C 179.910156 132.722656 186.945313 135.402344 195.09375 135.398438 C 199.886719 135.402344 203.996094 134.394531 208.265625 132.21875 L 208.269531 132.21875 L 208.273438 132.214844 C 210.839844 130.804688 212.242188 129.9375 213.730469 129.433594 C 215.214844 128.925781 216.820313 128.757813 219.835938 128.757813 L 220.09375 128.757813 L 220.09375 119.699219 C 220.089844 117.675781 220.261719 116.136719 220.90625 115.15625 C 221.226563 114.664063 221.660156 114.296875 222.28125 114.039063 C 222.898438 113.785156 223.707031 113.644531 224.757813 113.644531 C 224.835938 113.644531 224.914063 113.648438 224.992188 113.648438 L 225.253906 113.652344 L 225.253906 111.214844 L 202.988281 111.214844 L 202.988281 113.628906 L 203.222656 113.648438 C 205.738281 113.855469 207.472656 114.234375 208.546875 115.183594 C 209.085938 115.65625 209.480469 116.277344 209.746094 117.132813 C 210.011719 117.988281 210.140625 119.078125 210.140625 120.457031 C 210.140625 124.679688 208.777344 127.699219 206.410156 129.6875 C 204.046875 131.679688 200.644531 132.644531 196.535156 132.644531 C 189.550781 132.640625 184.917969 129.644531 181.980469 125.101563 C 179.042969 120.554688 177.839844 114.429688 177.839844 108.230469 C 177.835938 101.695313 178.71875 94.714844 181.585938 89.40625 C 183.019531 86.75 184.941406 84.507813 187.503906 82.929688 C 190.066406 81.351563 193.265625 80.429688 197.273438 80.429688 C 202.027344 80.429688 205.871094 82.085938 208.609375 84.878906 C 211.347656 87.671875 212.988281 91.613281 213.277344 96.210938 L 213.292969 96.449219 L 215.546875 96.449219 L 215.5625 96.207031 Z M 82.34375 87.503906 L 82.597656 87.503906 C 82.597656 85.90625 82.597656 83.257813 82.480469 80.667969 C 82.417969 79.371094 82.328125 78.089844 82.195313 76.957031 C 82.058594 75.820313 81.878906 74.839844 81.625 74.132813 L 81.625 74.121094 C 81.277344 73.234375 80.738281 72.554688 80.082031 72.054688 C 79.097656 71.300781 77.863281 70.933594 76.582031 70.753906 C 75.296875 70.570313 73.960938 70.570313 72.757813 70.570313 L 72.757813 70.828125 L 73.011719 70.828125 L 73.011719 68.390625 L 122.167969 68.390625 L 122.167969 82.960938 L 120.136719 82.960938 L 120.136719 83.214844 L 120.390625 83.175781 C 119.90625 80.234375 119.21875 77.972656 118.277344 76.226563 C 116.867188 73.609375 114.871094 72.167969 112.257813 71.417969 C 109.640625 70.667969 106.414063 70.570313 102.441406 70.570313 L 95.25 70.570313 C 94.8125 70.570313 94.445313 70.5625 94.128906 70.5625 C 93.738281 70.5625 93.429688 70.574219 93.164063 70.636719 C 92.898438 70.699219 92.660156 70.847656 92.519531 71.085938 L 92.511719 71.097656 L 92.507813 71.113281 C 92.394531 71.382813 92.382813 71.714844 92.378906 72.230469 C 92.378906 72.847656 92.414063 73.714844 92.414063 74.917969 L 92.414063 98.835938 L 92.65625 98.847656 C 93.328125 98.875 93.972656 98.890625 94.585938 98.890625 C 97.59375 98.890625 99.976563 98.546875 101.871094 97.914063 C 104.71875 96.96875 106.464844 95.355469 107.523438 93.335938 C 108.585938 91.316406 108.972656 88.910156 109.1875 86.332031 L 108.929688 86.3125 L 108.929688 86.566406 L 111.253906 86.566406 L 111.253906 86.3125 L 110.996094 86.304688 C 110.886719 90.804688 110.773438 95.398438 110.589844 99.894531 L 110.589844 99.917969 C 110.773438 104.007813 110.886719 108.199219 110.996094 112.289063 L 111.253906 112.28125 L 111.253906 112.023438 L 108.929688 112.023438 L 108.929688 112.28125 L 109.1875 112.246094 C 108.832031 109.605469 108.234375 107.578125 107.371094 106.019531 C 106.078125 103.675781 104.175781 102.40625 101.726563 101.757813 C 99.273438 101.105469 96.269531 101.039063 92.667969 101.039063 L 92.414063 101.039063 L 92.414063 117.679688 C 92.414063 119.179688 92.410156 121.113281 92.636719 122.984375 C 92.859375 124.851563 93.300781 126.660156 94.230469 127.921875 L 94.230469 127.925781 C 95.464844 129.574219 97.429688 130.496094 99.5625 131.011719 C 101.695313 131.527344 104.011719 131.644531 105.988281 131.644531 C 106.421875 131.644531 106.84375 131.636719 107.238281 131.628906 C 112.445313 131.523438 116.777344 131.15625 120.015625 129.277344 C 121.628906 128.339844 122.960938 127.015625 123.964844 125.179688 C 124.964844 123.34375 125.636719 121 125.960938 118.003906 L 125.707031 117.976563 L 125.707031 118.230469 L 127.753906 118.230469 L 126.863281 133.808594 L 73.011719 133.808594 L 73.011719 131.765625 L 72.757813 131.765625 L 72.757813 132.023438 C 74.359375 132.023438 76.203125 132.027344 77.84375 131.589844 C 78.660156 131.371094 79.429688 131.042969 80.085938 130.539063 C 80.738281 130.035156 81.277344 129.359375 81.625 128.46875 L 81.625 128.460938 C 81.878906 127.75 82.058594 126.769531 82.195313 125.636719 C 82.601563 122.242188 82.597656 117.488281 82.597656 115.085938 L 82.597656 87.503906 L 82.085938 87.503906 L 82.085938 115.085938 C 82.085938 116.683594 82.085938 119.328125 81.964844 121.902344 C 81.90625 123.191406 81.816406 124.464844 81.683594 125.578125 C 81.550781 126.6875 81.371094 127.648438 81.144531 128.289063 L 81.386719 128.375 L 81.144531 128.28125 C 80.828125 129.089844 80.355469 129.679688 79.769531 130.132813 C 78.894531 130.808594 77.746094 131.160156 76.511719 131.335938 C 75.277344 131.511719 73.960938 131.511719 72.757813 131.511719 L 72.5 131.511719 L 72.5 134.320313 L 127.351563 134.320313 L 128.300781 117.71875 L 125.476563 117.71875 L 125.449219 117.945313 C 125.132813 120.898438 124.472656 123.175781 123.511719 124.933594 C 122.070313 127.570313 119.96875 129.058594 117.230469 129.933594 C 114.492188 130.804688 111.121094 131.039063 107.226563 131.117188 C 106.835938 131.125 106.417969 131.128906 105.988281 131.128906 C 104.03125 131.128906 101.75 131.015625 99.683594 130.511719 C 97.613281 130.011719 95.765625 129.125 94.644531 127.617188 C 93.804688 126.488281 93.363281 124.75 93.144531 122.921875 C 92.925781 121.09375 92.925781 119.179688 92.925781 117.679688 L 92.925781 101.296875 L 92.667969 101.296875 L 92.667969 101.550781 C 97.460938 101.546875 101.144531 101.6875 103.75 103.085938 C 105.054688 103.78125 106.101563 104.785156 106.921875 106.265625 C 107.742188 107.75 108.328125 109.714844 108.675781 112.316406 L 108.707031 112.539063 L 111.515625 112.539063 L 111.507813 112.273438 C 111.398438 108.183594 111.289063 103.992188 111.105469 99.894531 L 110.847656 99.90625 L 111.105469 99.917969 C 111.289063 95.414063 111.398438 90.816406 111.507813 86.316406 L 111.515625 86.054688 L 108.695313 86.054688 L 108.675781 86.289063 C 108.398438 89.695313 107.796875 92.714844 105.839844 94.863281 C 104.859375 95.941406 103.535156 96.816406 101.710938 97.425781 C 99.886719 98.035156 97.554688 98.375 94.585938 98.375 C 93.980469 98.375 93.34375 98.363281 92.679688 98.332031 L 92.667969 98.589844 L 92.925781 98.589844 L 92.925781 74.917969 C 92.925781 73.707031 92.894531 72.832031 92.894531 72.230469 C 92.890625 71.734375 92.925781 71.421875 92.976563 71.320313 L 92.742188 71.21875 L 92.960938 71.347656 C 93.03125 71.238281 93.101563 71.1875 93.289063 71.136719 C 93.472656 71.089844 93.75 71.074219 94.128906 71.074219 C 94.433594 71.074219 94.804688 71.085938 95.25 71.085938 L 102.441406 71.085938 C 107.726563 71.082031 111.636719 71.269531 114.410156 72.863281 C 115.800781 73.65625 116.921875 74.796875 117.824219 76.472656 C 118.726563 78.144531 119.40625 80.355469 119.882813 83.257813 L 119.917969 83.472656 L 122.679688 83.472656 L 122.679688 67.878906 L 72.5 67.878906 L 72.5 71.085938 L 72.757813 71.085938 C 74.359375 71.082031 76.164063 71.085938 77.707031 71.5 C 78.480469 71.703125 79.183594 72.011719 79.769531 72.460938 C 80.355469 72.910156 80.828125 73.503906 81.144531 74.308594 L 81.386719 74.214844 L 81.144531 74.300781 C 81.371094 74.945313 81.550781 75.902344 81.683594 77.015625 C 82.085938 80.359375 82.085938 85.109375 82.085938 87.503906 L 82.34375 87.503906 "/>
</g>
</g>
</svg>
